<?xml version="1.0" encoding="UTF-8" standalone="no"?>
<!-- Created with Keyshape -->
<svg xmlns="http://www.w3.org/2000/svg" viewBox="0 0 40 40" text-rendering="geometricPrecision" shape-rendering="geometricPrecision" style="white-space: pre;">
    <path d="M0.5,-0.5C0.5,-0.5,16.5,-14.5,16.5,-14.5L20.5,-10.5C20.5,-10.5,4.5,3.5,4.5,3.5C4.5,3.5,0.5,-0.5,0.5,-0.5Z" stroke="none" fill="#000000" stroke-width="3" stroke-linecap="square" transform="translate(9.08025,23.5751)"/>
    <path d="M1.5,2.5C0.5,1.5,4.5,-3.5,4.5,-3.5L8.5,0.5C8.5,0.5,2.5,3.5,1.5,2.5Z" stroke="none" fill="#000000" stroke-width="3" stroke-linecap="square" transform="translate(4.08025,27.5751)"/>
    <path d="M16.5,-14.5C16.5,-14.5,17.5,-15.5,18.5,-16.5C19.8333,-17.8333,23.8333,-13.8333,22.5,-12.5C21.5,-11.5,20.5,-10.5,20.5,-10.5C20.5,-10.5,16.5,-14.5,16.5,-14.5Z" stroke="none" fill="#000000" stroke-width="3" stroke-linecap="square" transform="translate(10.0802,22.5751)"/>
    <path d="M0,0C6.05392,1.76379,15.6289,0.524547,17.0539,0C19.0539,-0.736212,21.9461,-4.17195,25,-2.20408C28.0539,-0.236212,29,-2.20408,29,-2.20408" stroke="#000000" fill="none" stroke-width="1" stroke-linecap="square" transform="translate(5.58025,33.2792)"/>
</svg>
